<?xml version="1.0" encoding="utf-8"?>
<svg width="46px" height="46px" viewBox="0 0 46 46" version="1.1" xmlns:xlink="http://www.w3.org/1999/xlink" xmlns="http://www.w3.org/2000/svg">
  <desc>Created with Lunacy</desc>
  <defs>
    <path d="M3.999 0L40.001 0Q40.1975 0 40.393 0.0192563Q40.5885 0.0385126 40.7812 0.0768397Q40.9739 0.115167 41.1618 0.172196Q41.3498 0.229224 41.5313 0.304406Q41.7129 0.379587 41.8861 0.472197Q42.0594 0.564807 42.2227 0.673953Q42.3861 0.783099 42.5379 0.907731Q42.6898 1.03236 42.8287 1.17128Q42.9676 1.3102 43.0923 1.46206Q43.2169 1.61393 43.326 1.77727Q43.4352 1.94062 43.5278 2.11388Q43.6204 2.28715 43.6956 2.46865Q43.7708 2.65015 43.8278 2.83815Q43.8848 3.02615 43.9232 3.21883Q43.9615 3.41152 43.9807 3.60703Q44 3.80254 44 3.999L44 40.001Q44 40.1975 43.9807 40.393Q43.9615 40.5885 43.9232 40.7812Q43.8848 40.9739 43.8278 41.1618Q43.7708 41.3498 43.6956 41.5313Q43.6204 41.7129 43.5278 41.8861Q43.4352 42.0594 43.326 42.2227Q43.2169 42.3861 43.0923 42.5379Q42.9676 42.6898 42.8287 42.8287Q42.6898 42.9676 42.5379 43.0923Q42.3861 43.2169 42.2227 43.326Q42.0594 43.4352 41.8861 43.5278Q41.7128 43.6204 41.5313 43.6956Q41.3498 43.7708 41.1618 43.8278Q40.9739 43.8848 40.7812 43.9232Q40.5885 43.9615 40.393 43.9807Q40.1975 44 40.001 44L3.999 44Q3.80254 44 3.60703 43.9807Q3.41152 43.9615 3.21883 43.9232Q3.02615 43.8848 2.83815 43.8278Q2.65015 43.7708 2.46865 43.6956Q2.28715 43.6204 2.11388 43.5278Q1.94062 43.4352 1.77727 43.326Q1.61393 43.2169 1.46206 43.0923Q1.3102 42.9676 1.17128 42.8287Q1.03236 42.6898 0.907731 42.5379Q0.783099 42.3861 0.673953 42.2227Q0.564807 42.0594 0.472197 41.8861Q0.379587 41.7128 0.304406 41.5313Q0.229224 41.3498 0.172196 41.1618Q0.115167 40.9739 0.0768396 40.7812Q0.0385126 40.5885 0.0192563 40.393Q0 40.1975 0 40.001L0 3.999Q0 3.80254 0.0192563 3.60703Q0.0385126 3.41152 0.0768397 3.21883Q0.115167 3.02615 0.172196 2.83815Q0.229224 2.65015 0.304406 2.46865Q0.379587 2.28715 0.472197 2.11388Q0.564807 1.94062 0.673953 1.77727Q0.783099 1.61393 0.907731 1.46206Q1.03236 1.3102 1.17128 1.17128Q1.3102 1.03236 1.46206 0.907731Q1.61393 0.783099 1.77727 0.673953Q1.94062 0.564807 2.11388 0.472197Q2.28715 0.379587 2.46865 0.304406Q2.65015 0.229224 2.83815 0.172196Q3.02615 0.115167 3.21883 0.0768396Q3.41152 0.0385126 3.60703 0.0192563Q3.80254 0 3.999 0Z" id="path_1" />
    <clipPath id="clip_1">
      <use xlink:href="#path_1" />
    </clipPath>
  </defs>
  <g id="Group" transform="translate(1 1)">
    <g id="Group-2" transform="translate(14 14.5)">
      <path d="M15.5 0.5L0.5 15.5" id="Line" fill="none" stroke="#FFFFFF" stroke-width="2" stroke-linecap="square" />
      <path d="M15.5 0.5L0.5 15.5" transform="matrix(-1 0 0 1 16 0)" id="Line" fill="none" stroke="#FFFFFF" stroke-width="2" stroke-linecap="square" />
    </g>
    <g id="Rectangle-Copy">
      <g clip-path="url(#clip_1)">
        <use xlink:href="#path_1" fill="none" stroke="#FFFFFF" stroke-width="4" />
      </g>
    </g>
  </g>
</svg>